<svg xmlns="http://www.w3.org/2000/svg" width="32" height="32" viewBox="0 0 32 32">
  <defs>
    <linearGradient id="bg" x1="0" y1="0" x2="1" y2="1">
      <stop offset="0%" stop-color="#0ea5e9"/><stop offset="100%" stop-color="#0369a1"/>
    </linearGradient>
  </defs>
  <rect width="32" height="32" rx="1.92" fill="url(#bg)"/>
  <g transform="translate(16, 16)" fill="none" stroke="white" stroke-width="2.24" stroke-linecap="round" stroke-linejoin="round">
    <path d="M-5.6,6.4l1.92,0a1.6,1.6 0 0,1 1.6,1.6l0,2.4a1.6,1.6 0 0,0 1.6,1.6l0.64,0"/>
    <path d="M-2.4,-7.2l1.92,0a1.6,1.6 0 0,1 1.6,1.6l0,4a1.6,1.6 0 0,0 1.6,1.6l0.64,0"/>
    <path d="M2.4,-10.4l1.92,0a1.6,1.6 0 0,1 1.6,1.6l0,6.4a1.6,1.6 0 0,0 1.6,1.6l0.64,0"/>
  </g>
</svg>