<svg xmlns="http://www.w3.org/2000/svg" width="192" height="192" viewBox="0 0 192 192">
  <defs>
    <linearGradient id="bg" x1="0" y1="0" x2="1" y2="1">
      <stop offset="0%" stop-color="#0ea5e9"/><stop offset="100%" stop-color="#0369a1"/>
    </linearGradient>
  </defs>
  <rect width="192" height="192" rx="11.52" fill="url(#bg)"/>
  <g transform="translate(96, 96)" fill="none" stroke="white" stroke-width="13.440000000000001" stroke-linecap="round" stroke-linejoin="round">
    <path d="M-33.599999999999994,38.400000000000006l11.52,0a9.600000000000001,9.600000000000001 0 0,1 9.600000000000001,9.600000000000001l0,14.399999999999999a9.600000000000001,9.600000000000001 0 0,0 9.600000000000001,9.600000000000001l3.84,0"/>
    <path d="M-14.399999999999999,-43.2l11.52,0a9.600000000000001,9.600000000000001 0 0,1 9.600000000000001,9.600000000000001l0,24a9.600000000000001,9.600000000000001 0 0,0 9.600000000000001,9.600000000000001l3.84,0"/>
    <path d="M14.399999999999999,-62.400000000000006l11.52,0a9.600000000000001,9.600000000000001 0 0,1 9.600000000000001,9.600000000000001l0,38.400000000000006a9.600000000000001,9.600000000000001 0 0,0 9.600000000000001,9.600000000000001l3.84,0"/>
  </g>
</svg>