<svg xmlns="http://www.w3.org/2000/svg" width="512" height="512" viewBox="0 0 512 512">
  <defs>
    <linearGradient id="bg" x1="0" y1="0" x2="1" y2="1">
      <stop offset="0%" stop-color="#0ea5e9"/><stop offset="100%" stop-color="#0369a1"/>
    </linearGradient>
  </defs>
  <rect width="512" height="512" rx="30.72" fill="url(#bg)"/>
  <g transform="translate(256, 256)" fill="none" stroke="white" stroke-width="35.84" stroke-linecap="round" stroke-linejoin="round">
    <path d="M-89.6,102.4l30.72,0a25.6,25.6 0 0,1 25.6,25.6l0,38.4a25.6,25.6 0 0,0 25.6,25.6l10.24,0"/>
    <path d="M-38.4,-115.2l30.72,0a25.6,25.6 0 0,1 25.6,25.6l0,64a25.6,25.6 0 0,0 25.6,25.6l10.24,0"/>
    <path d="M38.4,-166.4l30.72,0a25.6,25.6 0 0,1 25.6,25.6l0,102.4a25.6,25.6 0 0,0 25.6,25.6l10.24,0"/>
  </g>
</svg>